<svg xmlns="http://www.w3.org/2000/svg" width="111" height="74.519" viewBox="0 0 111 74.519">
  <g id="Group_2972" data-name="Group 2972" transform="translate(-209.714 -158.187)">
    <path id="Path_4071" data-name="Path 4071" d="M320.627,302.528c.021.437.06.875.061,1.312.005,3.689-.066,7.379.022,11.066a14.252,14.252,0,0,1-3.929,10.166,34.048,34.048,0,0,1-10.93,7.693,75.666,75.666,0,0,1-18.516,5.864,114.93,114.93,0,0,1-25.885,2c-11.454-.38-22.686-2.05-33.414-6.306a41.265,41.265,0,0,1-12.709-7.5A15.906,15.906,0,0,1,210,318.49a12.547,12.547,0,0,1-.273-2.616c-.027-4.066-.015-8.132-.007-12.2a2.139,2.139,0,0,1,.334-1.2,2.734,2.734,0,0,1,.4.548c1.577,3.938,4.495,6.721,7.883,9.069a56.025,56.025,0,0,0,16.31,7.369,103.17,103.17,0,0,0,19.612,3.619,117.988,117.988,0,0,0,15.823.422,108.449,108.449,0,0,0,22.727-3.19,62.821,62.821,0,0,0,18.292-7.5,26.793,26.793,0,0,0,6.192-5.287,16.527,16.527,0,0,0,2.684-4.375,4.284,4.284,0,0,1,.428-.664Z" transform="translate(0 -107.989)" fill="#91e8fd"/>
    <path id="Path_4072" data-name="Path 4072" d="M405.546,220.187a6.76,6.76,0,0,1,3.53-1.487,6.273,6.273,0,0,1,6.845,3.311,9.9,9.9,0,0,1,.66,7.916,7.717,7.717,0,0,1-6.169,5.313c-5.241.986-9.191-1.565-10.492-6.082a15.464,15.464,0,0,1-.485-3.847c-.052-2-.015-4.017.1-6.02.334-5.723,4.732-8.64,9.122-9.011A11.779,11.779,0,0,1,414.7,211.3l-.836,3.972a16.949,16.949,0,0,0-1.778-.337,17.678,17.678,0,0,0-3.12-.115,3.45,3.45,0,0,0-2.981,2.209,21.977,21.977,0,0,0-.755,2.994Zm-.3,5.972a6.85,6.85,0,0,0,.791,3.389,2.781,2.781,0,0,0,2.667,1.544A2.547,2.547,0,0,0,411,229.238a5.76,5.76,0,0,0,.27-3.569c-.46-1.878-1.452-2.914-3.585-2.636C405.21,223.357,405.064,224.111,405.251,226.159Z" transform="translate(-141.978 -38.952)" fill="#2e2e50"/>
    <path id="Path_4073" data-name="Path 4073" d="M474.468,223.458a62.362,62.362,0,0,1,.67-6.3,7.6,7.6,0,0,1,7.5-6.214,8.336,8.336,0,0,1,6.95,2.527,8.174,8.174,0,0,1,2.017,4.256,33.257,33.257,0,0,1,.191,8.507c-.079,1-.138,2.007-.315,2.991a7.638,7.638,0,0,1-5.322,6.418,8.623,8.623,0,0,1-8.714-1.664,6.712,6.712,0,0,1-2.3-4.092C474.818,227.751,474.683,225.579,474.468,223.458Zm11.783-.022-.118,0c0-1.255.041-2.511-.012-3.764a5.561,5.561,0,0,0-.994-3.432,2.417,2.417,0,0,0-4.036.157,3.859,3.859,0,0,0-.688,1.849q-.109,5.193-.023,10.389a4.241,4.241,0,0,0,.663,1.993,2.415,2.415,0,0,0,4.293-.055,4.474,4.474,0,0,0,.591-1.759C486.091,227.024,486.151,225.228,486.251,223.436Z" transform="translate(-198.154 -39.476)" fill="#2e2e50"/>
    <path id="Path_4074" data-name="Path 4074" d="M328.029,225.018V221c1.019,0,1.97.042,2.917-.009a2.61,2.61,0,0,0,2.791-2.866,2.539,2.539,0,0,0-1.835-2.792,3.173,3.173,0,0,0-3.587,1.125,10.141,10.141,0,0,0-.5.966h-5.358a5.032,5.032,0,0,1,1.824-4.431,8.436,8.436,0,0,1,3.8-1.862,11.917,11.917,0,0,1,8.379,1.177c3.111,1.706,4.589,7.3.3,10.064-.307.2-.6.414-1.008.693.416.244.723.432,1.038.606,3.785,2.089,3.629,6.794,1.566,9.219a8.356,8.356,0,0,1-5.194,2.8,11.252,11.252,0,0,1-8.432-1.529,5.748,5.748,0,0,1-2.55-5.338c1.817-.13,3.588-.021,5.268-.039a9.658,9.658,0,0,0,.929,1.625,3.612,3.612,0,0,0,4.7.274,3.538,3.538,0,0,0,.58-4.466,3,3,0,0,0-2.519-1.187C330.151,224.977,329.151,225.018,328.029,225.018Z" transform="translate(-84.176 -39.412)" fill="#2e2e50"/>
    <path id="Path_4075" data-name="Path 4075" d="M579,238.172a24.849,24.849,0,0,0-6.73-5.526c-1.931-1.084-3.937-2.044-5.953-2.965A1.584,1.584,0,0,1,565.206,228c.046-4.232.017-8.464.02-12.7,0-.441.041-.882.074-1.568,1.666.782,3.153,1.427,4.59,2.167a29.178,29.178,0,0,1,8.732,6.476c2.335,2.641,3.769,5.632,3.393,9.27A11.648,11.648,0,0,1,579,238.172Z" transform="translate(-266.066 -41.571)" fill="#2e2e50"/>
    <path id="Path_4076" data-name="Path 4076" d="M245.825,229.665c-5.051,2.1-9.854,4.616-13.61,8.849a3.873,3.873,0,0,1-.585-.491,10.844,10.844,0,0,1-.471-13.418,21.345,21.345,0,0,1,5.2-5.23,43.857,43.857,0,0,1,8.436-4.7c.3-.131.62-.2,1.028-.336Z" transform="translate(-14.481 -42.031)" fill="#2e2e50"/>
    <path id="Path_4077" data-name="Path 4077" d="M530.346,168.793a5.176,5.176,0,0,1-5.33-5.29,5.427,5.427,0,0,1,5.53-5.316,5.306,5.306,0,1,1-.2,10.606Zm-2.111-5.169A2.2,2.2,0,0,0,530.31,166a2.246,2.246,0,0,0,2.269-2.335,2.309,2.309,0,0,0-2.059-2.551A2.406,2.406,0,0,0,528.235,163.624Z" transform="translate(-235.986)" fill="#2e2e50"/>
  </g>
</svg>
